<?xml version="1.0" encoding="UTF-8"?>
<svg id="Capa_1" data-name="Capa 1" xmlns="http://www.w3.org/2000/svg" viewBox="0 0 602.42 113.31">
  <defs>
    <style>
      .cls-1 {
        fill: #1f96b2;
      }

      .cls-1, .cls-2 {
        stroke-width: 0px;
      }

      .cls-2 {
        fill: #fff;
      }
    </style>
  </defs>
  <g>
    <circle class="cls-1" cx="12.43" cy="14.52" r="11.43"/>
    <circle class="cls-1" cx="12.43" cy="44.49" r="11.43"/>
    <circle class="cls-1" cx="12.43" cy="74.46" r="11.43"/>
  </g>
  <g>
    <path class="cls-2" d="M105.94,85.88h-22.26l-10.29-26.51c-1.19-2.98-3.99-4.48-8.39-4.48h-7.61v30.99h-20.7V3.23h37.03c9.62,0,16.85,2.07,21.7,6.21,4.85,4.14,7.27,12.05,7.27,19.73,0,5.37-1.44,11.01-4.31,14.93-2.87,3.92-6.92,6.7-12.14,8.33,2.24.45,4.25,1.49,6.04,3.13,1.79,1.64,3.21,3.84,4.25,6.6l9.4,23.72ZM80.09,37.16c2.01-1.38,2.88-4.53,3.02-7.43.09-1.9.15-6.36-2.97-8.6-1.94-1.39-5.24-2.01-9.79-2.01h-13.2v20.12h13.2c4.48,0,7.72-.69,9.73-2.07Z"/>
    <path class="cls-2" d="M160.91,59.48h-35.69c.37,4.4,1.64,7.57,3.8,9.51,2.16,1.94,5.33,2.91,9.51,2.91,2.83,0,5.67-.47,8.5-1.4,2.83-.93,5.41-2.22,7.72-3.86l5.15,13.43c-2.84,2.09-6.27,3.73-10.29,4.92-4.03,1.19-8.06,1.79-12.08,1.79-6.49,0-12.12-1.19-16.89-3.58-4.77-2.39-8.43-5.8-10.96-10.24-2.54-4.44-3.8-9.68-3.8-15.72s1.21-10.87,3.64-15.38c2.42-4.51,5.78-8.04,10.07-10.57,4.29-2.53,9.19-3.8,14.71-3.8s10.07,1.19,14.1,3.58c4.03,2.39,7.12,5.8,9.29,10.24,2.16,4.44,3.24,9.6,3.24,15.49v2.69ZM125.45,50.08h18.12c-.75-5.82-3.65-8.73-8.73-8.73s-8.13,2.91-9.4,8.73Z"/>
    <path class="cls-2" d="M229.17,3.18v82.7h-19.91v-7.72c-1.64,2.69-4.03,4.79-7.16,6.32-3.13,1.53-6.56,2.29-10.29,2.29-4.85,0-9.17-1.25-12.98-3.75-3.8-2.5-6.77-6-8.89-10.52-2.13-4.51-3.19-9.71-3.19-15.61s1.06-10.96,3.19-15.44c2.12-4.48,5.09-7.92,8.89-10.35,3.8-2.42,8.13-3.64,12.98-3.64,3.58,0,6.88.75,9.9,2.24,3.02,1.49,5.43,3.51,7.22,6.04v-17.33c0-8.43,6.83-15.26,15.26-15.26h4.99ZM206.34,67.93c1.94-2.5,2.91-6.1,2.91-10.8s-.99-8.07-2.96-10.57c-1.98-2.5-4.72-3.75-8.22-3.75s-6.45,1.21-8.39,3.64c-1.94,2.42-2.91,5.91-2.91,10.46s.99,8.33,2.97,10.91c1.98,2.57,4.75,3.86,8.33,3.86s6.34-1.25,8.28-3.75Z"/>
    <path class="cls-2" d="M241.87,93.13c3.73.37,4.73.56,6.45.56,3.36,0,5.29-.02,8.2-3.31,1.84-2.08,1.9-6.62,1.9-10.42V18.63c0-8.51,6.9-15.4,15.4-15.4h5.63v76.39c0,9.4,1,19.75-4.25,25.75-4.83,5.52-11.79,7.27-21.04,7.27-3.66,0-7.96-.72-12.3-2.73v-16.78Z"/>
    <path class="cls-2" d="M344.94,29.05v56.83h-19.8v-7.61c-3.65,5.67-9.06,8.5-16.22,8.5s-12.62-2.01-16.17-6.04c-3.54-4.03-5.31-10.18-5.31-18.46V29.05h20.25v33.79c0,5.59,2.42,8.39,7.27,8.39,2.83,0,5.13-1.01,6.88-3.02,1.75-2.01,2.63-4.7,2.63-8.06v-31.1h20.47Z"/>
    <path class="cls-2" d="M396.31,28.94v18.46c-3.21-1.49-6.3-2.24-9.29-2.24-8.5,0-12.75,4.07-12.75,12.19v28.53h-20.25v-40.5c0-6.11-.3-11.56-.9-16.33h19.02l1.23,9.51c1.34-3.5,3.5-6.19,6.49-8.06,2.98-1.86,6.34-2.8,10.07-2.8,2.76,0,4.88.41,6.38,1.23Z"/>
    <path class="cls-2" d="M413.69,1.19h2.91c5.04,0,9.12,4.08,9.12,9.12h0c0,5.04-4.08,9.12-9.12,9.12h-2.91c-5.04,0-9.12-4.08-9.12-9.12h0c0-5.04,4.08-9.12,9.12-9.12ZM405.13,85.88V29.05h20.25v56.83h-20.25Z"/>
    <path class="cls-2" d="M432.55,79.95l5.15-13.76c3.06,2.09,6.53,3.71,10.4,4.87,3.88,1.16,7.68,1.73,11.41,1.73,2.31,0,4.1-.34,5.37-1.01,1.27-.67,1.9-1.6,1.9-2.8,0-1.04-.47-1.88-1.4-2.52-.93-.63-2.7-1.21-5.31-1.73l-9.17-2.12c-5.82-1.19-10.01-3.08-12.59-5.65-2.57-2.57-3.86-6.13-3.86-10.68,0-3.65,1.08-6.9,3.24-9.73,2.16-2.83,5.16-5.05,9.01-6.66,3.84-1.6,8.26-2.41,13.26-2.41,4.1,0,8.13.6,12.08,1.79,3.95,1.19,7.64,2.87,11.08,5.03l-5.37,13.43c-2.98-1.94-6.04-3.43-9.17-4.48-3.13-1.04-6.08-1.57-8.84-1.57-2.24,0-3.99.36-5.26,1.06-1.27.71-1.9,1.73-1.9,3.08,0,.82.37,1.47,1.12,1.96.75.49,2.16.99,4.25,1.51l9.51,2.13c6.04,1.42,10.39,3.49,13.03,6.21,2.65,2.72,3.97,6.43,3.97,11.13,0,5.59-2.22,10-6.66,13.2-4.44,3.21-10.57,4.81-18.4,4.81-11.34,0-20.29-2.27-26.85-6.82Z"/>
    <path class="cls-2" d="M532.56,69.77v15.33c-2.76,1.12-6.27,1.68-10.52,1.68-7.68,0-13.52-2.16-17.51-6.49-3.99-4.32-5.99-10.33-5.99-18.01v-18.35h-10.63v-14.88h10.63v-7.9c0-6.53,3.99-15.52,10.35-16.99,5.86-1.35,9.9-.46,9.9-.46v25.35h13.65v14.88h-13.65v18.35c0,2.68.8,4.72,2.4,6.1,1.6,1.38,3.6,2.07,5.99,2.07,1.34,0,3.13-.22,5.37-.67Z"/>
    <path class="cls-2" d="M601.02,29.05v49.25c0,4.19-3.39,7.58-7.58,7.58h-12.33v-7.72c-1.64,2.69-4.03,4.79-7.16,6.32-3.13,1.53-6.56,2.29-10.29,2.29-4.85,0-9.17-1.19-12.98-3.58-3.8-2.39-6.77-5.8-8.89-10.24-2.13-4.44-3.19-9.57-3.19-15.38s1.08-11.11,3.24-15.66c2.16-4.55,5.15-8.09,8.95-10.63,3.8-2.53,8.09-3.8,12.87-3.8,3.73,0,7.14.8,10.24,2.41,3.09,1.6,5.5,3.75,7.22,6.43v-7.27h19.91ZM578.19,67.98c1.94-2.46,2.91-6,2.91-10.63s-.97-8.3-2.91-10.8c-1.94-2.5-4.7-3.75-8.28-3.75s-6.26,1.29-8.28,3.86-3.02,6.21-3.02,10.91.97,8.04,2.91,10.46c1.94,2.42,4.74,3.64,8.39,3.64s6.34-1.23,8.28-3.69Z"/>
  </g>
</svg>