<?xml version="1.0" encoding="UTF-8"?>
<svg xmlns="http://www.w3.org/2000/svg" xmlns:xlink="http://www.w3.org/1999/xlink" width="150" height="45.084" viewBox="0 0 150 45.084">
  <defs>
    <path id="path-1" fill-rule="evenodd" d="M0 0h38.73846648v40.6708H0V0z"></path>
    <mask id="mask-2" maskContentUnits="userSpaceOnUse" maskUnits="userSpaceOnUse">
      <rect width="150" height="45.084" x="0" y="0" fill="black"></rect>
      <use fill="white" xlink:href="#path-1"></use>
    </mask>
    <path id="path-10" fill-rule="evenodd" d="M45.4336 25.8064h8.518V45.084h-8.518V25.8064z"></path>
    <mask id="mask-11" maskContentUnits="userSpaceOnUse" maskUnits="userSpaceOnUse">
      <rect width="150" height="45.084" x="0" y="0" fill="black"></rect>
      <use fill="white" xlink:href="#path-10"></use>
    </mask>
    <path id="path-15" fill-rule="evenodd" d="M0 45.084h150V0H0v45.084z"></path>
    <mask id="mask-16" maskContentUnits="userSpaceOnUse" maskUnits="userSpaceOnUse">
      <rect width="150" height="45.084" x="0" y="0" fill="black"></rect>
      <use fill="white" xlink:href="#path-15"></use>
    </mask>
  </defs>
  <g>
    <g>
      <use fill="none" xlink:href="#path-1"></use>
      <g mask="url(#mask-2)">
        <path fill="rgb(255,132,31)" fill-rule="evenodd" d="M37.4408 24.9688l-12.525-23.123c-.038-.071-.091-.129-.133-.196-.075-.119-.148-.239-.238-.349-.073-.091-.157-.168-.238-.25-.081-.082-.157-.166-.247-.241-.109-.09-.228-.164-.346-.24-.067-.043-.124-.096-.195-.136-.013-.007-.026-.009-.038-.016-.128-.069-.263-.119-.398-.171-.085-.033-.167-.076-.253-.102-.113-.035-.23-.05-.346-.073-.109-.021-.218-.053-.328-.064-.111-.011-.224-.002-.337-.003-.114-.001-.229-.011-.342 0-.11.009-.217.04-.326.06-.117.022-.235.036-.349.069-.087.025-.17.068-.255.1-.135.051-.27.099-.398.167-.013.006-.026.009-.039.016-.072.039-.13.091-.198.134-.118.075-.237.147-.346.236-.092.074-.169.159-.251.24-.082.081-.166.156-.241.246-.09.109-.164.227-.24.346-.043.067-.096.124-.136.195L.4458 34.7048c-.95 1.712-.332 3.87 1.38 4.82.545.303 1.135.446 1.717.446 1.246 0 2.455-.658 3.103-1.825l15.115-27.238 9.445 17.438c.866 1.599.239 2.982-.071 3.503-.31.52-1.228 1.731-3.046 1.731h-9.603c-1.958 0-3.545 1.587-3.545 3.545s1.587 3.546 3.545 3.546h9.603c3.785 0 7.201-1.942 9.138-5.194 1.937-3.252 2.017-7.18.214-10.508"></path>
      </g>
    </g>
    <path fill="rgb(11,61,85)" fill-rule="evenodd" d="M60.07339478 16.63939667v-1.60800171c-.3480072.4260025-.75.77899933-1.21099854 1.04800415-.8769989.51300049-1.93200684.7689972-3.16500854.7689972-1.31999207 0-2.50999451-.29999543-3.56900025-.89899445-1.05999756-.59900666-1.89299011-1.4370041-2.5019989-2.51400757-.60699463-1.07699585-.91099548-2.3449936-.91099548-3.80299378 0-1.45899963.30400085-2.727005.91099548-3.80400085.60900879-1.07600403 1.44200134-1.91500092 2.5019989-2.51399994 1.05900574-.59899902 2.24900818-.89900208 3.56900025-.89900208 1.18099975 0 2.21400451.2610016 3.1000061.78199768.40899658.24100495.77000427.5450058 1.09399414.90100098V2.62439728h4.06401062v14.01499939h-3.88200378zm-5.49598694-3.58200073q.80699157.45600128 1.79699707.45600128c.67799377 0 1.28500366-.15200043 1.82400512-.45600128.53799439-.3030014.96800232-.75099946 1.28900147-1.34199524.32099914-.59000397.48199463-1.28400422.48199463-2.08300019 0-.81600189-.16099549-1.51100158-.48199463-2.08499908-.32099915-.57300568-.75100708-1.01100159-1.28900147-1.31500244-.53900146-.30400086-1.14601135-.45600128-1.82400512-.45600128q-.9900055 0-1.79699707.45600128c-.53900147.30400085-.9690094.74199676-1.29000855 1.31500244-.32099914.5739975-.48199463 1.2689972-.48199463 2.08499908 0 .79899597.16099549 1.49299622.48199463 2.08300019.32099915.59099578.75100708 1.03899383 1.29000855 1.34199524z"></path>
    <path fill="rgb(11,61,85)" fill-rule="evenodd" d="M82.0341 2.6243h-3.881l-4.042 9.549-3.878-9.549h-4.168l5.887 14.015h4.169l5.913-14.015z"></path>
    <path fill="rgb(11,61,85)" fill-rule="evenodd" d="M94.06929016 16.63980103v-1.60800171c-.34899902.4260025-.75.77900695-1.21099853 1.04800415-.8769989.51200103-1.93199158.76799774-3.16499329.76799774-1.32000732 0-2.51000977-.29899597-3.56900024-.89900208-1.05999756-.59899902-1.89300538-1.435997-2.50100708-2.51299286-.60800171-1.07700347-.91099549-2.34500122-.91099549-3.80400085s.30299378-2.72600555.91099549-3.8030014c.6080017-1.07700348 1.44100952-1.91500092 2.50100708-2.51399994 1.05899047-.59899903 2.24899292-.89900208 3.56900024-.89900208 1.18099976 0 2.21398926.26000214 3.09999084.78199768.40901185.2400055.77000428.5450058 1.0940094.90000153V2.62380219h4.06399537v14.01599884h-3.88200379zm-1.87599182-3.58200074c.53900146-.3030014.96899414-.75099945 1.29000854-1.34199524.32099915-.59000396.48199463-1.28500366.48199463-2.08399963 0-.8160019-.16099548-1.51100159-.48199463-2.08399963-.3210144-.57300568-.75100708-1.0110016-1.29000854-1.31500245-.53799438-.30400085-1.1459961-.45600128-1.82299805-.45600128q-.99000549 0-1.79699707.45600128c-.53900146.30400086-.9690094.74199677-1.29000854 1.31500245-.32099915.57299804-.48199463 1.26799774-.48199463 2.08399963 0 .79899597.16099548 1.49399567.48199463 2.08399963.32099914.5909958.75100708 1.03899384 1.29000854 1.34199524q.80699158.45600128 1.79699707.45600128c.67700196 0 1.28500367-.15200042 1.82299805-.45600128z"></path>
    <path fill="rgb(11,61,85)" fill-rule="evenodd" d="M113.6205 3.0806c-.877-.443-1.872-.665-2.983-.665-1.198 0-2.267.253-3.204.756-.558.3-1.029.685-1.433 1.138v-1.685h-3.881v14.015h4.064v-6.929c0-.886.143-1.598.429-2.137.287-.538.686-.946 1.198-1.224.513-.277 1.09-.417 1.733-.417.903 0 1.602.27 2.097.808.495.538.742 1.372.742 2.5v7.399h4.065v-8.024c0-1.424-.252-2.592-.756-3.503-.504-.912-1.195-1.589-2.071-2.032"></path>
    <path fill="rgb(11,61,85)" fill-rule="evenodd" d="M125.5385 6.2324c.556-.304 1.172-.456 1.85-.456.642 0 1.233.152 1.771.456.538.304.999.786 1.38 1.446l3.126-1.719c-.485-1.13-1.28-2.002-2.382-2.619-1.104-.616-2.394-.925-3.87-.925-1.51 0-2.852.314-4.024.939-1.173.625-2.093 1.475-2.762 2.553-.669 1.076-1.003 2.318-1.003 3.725 0 1.389.334 2.631 1.003 3.725.669 1.094 1.589 1.95 2.762 2.566 1.172.617 2.514.925 4.024.925 1.476 0 2.766-.313 3.87-.938 1.102-.625 1.897-1.493 2.382-2.605l-3.126-1.719c-.381.677-.842 1.168-1.38 1.471-.538.304-1.129.456-1.771.456-.678 0-1.294-.152-1.85-.456-.556-.303-.999-.746-1.329-1.328-.33-.582-.495-1.281-.495-2.097 0-.816.165-1.511.495-2.085.33-.573.773-1.011 1.329-1.315"></path>
    <path fill="rgb(11,61,85)" fill-rule="evenodd" d="M146.418396 3.30180359c1.10202026.59099579 1.9750061 1.42399597 2.61801147 2.50099945.6419983 1.07699585.96298218 2.37000275.96298218 3.8809967 0 .15700531-.0079956.33499909-.0249939.53400422-.01699829.19999694-.03500366.38700103-.05300903.560997h-10.5949707c.08599853.3769989.21798706.72699738.40997314 1.04199982.34701538.57299805.82400513 1.01200104 1.43200684 1.31500244.6080017.30400086 1.3380127.45600128 2.18899536.45600128.7290039 0 1.37600708-.11299896 1.94000244-.33800506.56500244-.22599793 1.08200073-.56499481 1.55099487-1.0169983l2.16201782 2.34500123c-.64300537.7290039-1.4500122 1.28900146-2.42300415 1.6800003-.97201538.39099884-2.09298706.58599854-3.36099243.58599854-1.59802246 0-2.99499512-.31199646-4.19299316-.93799591-1.19900513-.625-2.12802124-1.48000336-2.7880249-2.56500244-.66098023-1.08599854-.98999024-2.32299805-.98999024-3.71299744 0-1.38899994.31698609-2.63100433.95098877-3.7250061.63302612-1.09399414 1.51901245-1.9489975 2.65701294-2.56599427 1.1369934-.61600494 2.41799927-.92500305 3.84298706-.92500305 1.37200928 0 2.60900879.29599762 3.71200562.88600159zm-3.68600464 2.18799591c-.6949768 0-1.3079834.15200043-1.8369751.45600128-.52999878.30400086-.9420166.72899628-1.23699951 1.27700043-.18902588.34899902-.29501343.7539978-.36401367 1.18499756h6.85900879c-.05801392-.44000244-.17800904-.84200287-.37301636-1.19799805-.29599-.53800201-.7039795-.95999908-1.2250061-1.26399994-.5209961-.30400085-1.1289978-.45600128-1.82299805-.45600128z"></path>
    <g>
      <use fill="none" xlink:href="#path-10"></use>
      <g mask="url(#mask-11)">
        <path fill="rgb(11,61,85)" fill-rule="evenodd" d="M49.8876 39.7954c0 .712-.143 1.233-.43 1.563-.286.33-.69.495-1.211.495-.677 0-1.251-.165-1.719-.495l-1.094 2.944c.399.261.886.456 1.459.586.572.13 1.18.196 1.823.196 1.667 0 2.957-.479 3.868-1.433.912-.956 1.368-2.25 1.368-3.882v-13.963h-4.064v13.989z"></path>
      </g>
    </g>
    <path fill="rgb(11,61,85)" fill-rule="evenodd" d="M67.6801 32.762c0 .833-.143 1.528-.43 2.084-.286.556-.673.973-1.159 1.25-.487.279-1.042.417-1.667.417-.903 0-1.602-.273-2.097-.821-.495-.547-.742-1.41-.742-2.591v-7.295h-4.064v7.92c0 1.424.251 2.605.755 3.543.503.937 1.207 1.632 2.11 2.084.903.451 1.945.677 3.126.677 1.077 0 2.066-.248 2.97-.742.537-.295.991-.684 1.381-1.147v1.68h3.856V25.806h-4.039v6.956z"></path>
    <path fill="rgb(11,61,85)" fill-rule="evenodd" d="M79.247 27.6712v-1.865h-3.882v14.015h4.064v-6.617c0-1.337.339-2.326 1.016-2.969.677-.643 1.589-.964 2.736-.964.138 0 .282.009.429.026.148.018.3.043.456.078v-3.777c-1.32 0-2.44.256-3.36.768-.596.332-1.074.774-1.459 1.305"></path>
    <use fill="none" xlink:href="#path-15"></use>
    <g mask="url(#mask-16)">
      <path fill="rgb(11,61,85)" fill-rule="evenodd" d="M86.359 39.821h4.064V25.806h-4.064v14.015z"></path>
      <path fill="rgb(11,61,85)" fill-rule="evenodd" d="M103.39630127 26.3796997c.40800476.23999787.77000427.54499818 1.09399414.90000153v-6.78800201h4.06399536v19.33000183h-3.88198852v-1.6080017c-.3480072.4260025-.75.77799987-1.21099854 1.04800414-.8769989.5119934-1.93200683.76799774-3.16600037.76799774-1.32000732 0-2.50900268-.2990036-3.56900024-.89900207-1.05799866-.59899903-1.89199829-1.43599701-2.5-2.51399994-.6080017-1.07600403-.91200256-2.34400177-.91200256-3.8030014 0-1.45899964.30400085-2.72599793.91200256-3.8030014.60800171-1.07699586 1.44200134-1.9149933 2.5-2.51399995 1.05999756-.59899902 2.24899292-.89899444 3.56900024-.89899444 1.18099976 0 2.21499634.2599945 3.10099793.78199768zm-.6000061 9.86000062c.53900146-.30400086.96800232-.75099945 1.29000854-1.34199524.32099915-.59000397.48199463-1.28500366.48199463-2.08399964 0-.81600189-.16099548-1.51100158-.48199463-2.08399963-.32200622-.57300568-.75100708-1.01100159-1.29000854-1.31500244-.53799439-.30400086-1.1459961-.45600128-1.82299805-.45600128-.66000366 0-1.2599945.15200042-1.79800415.45600128-.53799439.30400085-.96800232.74199676-1.28900147 1.31500244-.32199096.57299805-.48199462 1.26799774-.48199462 2.08399963 0 .79899598.16000366 1.49399567.48199462 2.08399964.32099915.59099579.75100708 1.03799438 1.28900147 1.34199524.53800964.30400085 1.13800049.45600128 1.79800415.45600128.67700195 0 1.28500366-.15200043 1.82299805-.45600128z"></path>
      <path fill="rgb(11,61,85)" fill-rule="evenodd" d="M112.285 39.821h4.064V25.806h-4.064v14.015z"></path>
      <path fill="rgb(11,61,85)" fill-rule="evenodd" d="M125.2001 29.4143c.556-.304 1.172-.456 1.85-.456.642 0 1.232.152 1.771.456.538.304.998.786 1.38 1.446l3.126-1.72c-.485-1.129-1.28-2.001-2.383-2.618-1.103-.616-2.393-.925-3.869-.925-1.511 0-2.852.313-4.024.939-1.173.625-2.093 1.475-2.762 2.553-.669 1.076-1.003 2.318-1.003 3.725 0 1.389.334 2.631 1.003 3.725.669 1.094 1.589 1.95 2.762 2.566 1.172.617 2.513.924 4.024.924 1.476 0 2.766-.312 3.869-.937 1.103-.626 1.898-1.493 2.383-2.605l-3.126-1.72c-.382.678-.842 1.169-1.38 1.472-.539.304-1.129.456-1.771.456-.678 0-1.294-.152-1.85-.456-.556-.303-.999-.746-1.329-1.328-.33-.582-.495-1.281-.495-2.097 0-.816.165-1.511.495-2.085.33-.573.773-1.011 1.329-1.315"></path>
      <path fill="rgb(11,61,85)" fill-rule="evenodd" d="M142.23699951 25.59770203c1.49301148 0 2.82202149.3089981 3.98602295.92500305 1.16299439.61699676 2.07498169 1.46799469 2.73498535 2.55299377.66000366 1.08500672.98999024 2.33100128.98999024 3.7380066 0 1.40699767-.32998658 2.64899444-.98999024 3.72599792-.66000366 1.07699585-1.57199096 1.92700195-2.73498535 2.55200195-1.16400146.62599945-2.49301147.93799591-3.98602295.93799591-1.47598266 0-2.79199219-.31199646-3.94598389-.9379959-1.15600585-.625-2.0630188-1.48000336-2.72299194-2.56500245-.66000366-1.08599853-.98901367-2.32299805-.98901367-3.71299744 0-1.4070053.32901001-2.65299987.98901367-3.73800659.65997315-1.08499908 1.56698609-1.935997 2.72299194-2.55299377 1.1539917-.61600495 2.47000123-.92500305 3.9459839-.92500305zm1.83700562 10.64199829c.5289917-.30400086.95498657-.75099945 1.27600097-1.34199524.32098389-.59000397.48199463-1.28500366.48199463-2.08399964 0-.81600189-.16101074-1.51100158-.48199463-2.08399963-.3210144-.57300568-.74700927-1.01100159-1.27600097-1.31500244-.52999878-.30400086-1.13400269-.45600128-1.81100464-.45600128s-1.28500366.15200042-1.82299805.45600128c-.53900146.30400085-.96899414.74199676-1.29000854 1.31500244-.32098389.57299805-.48199463 1.26799774-.48199463 2.08399963 0 .79899598.16101074 1.49399567.48199463 2.08399964.3210144.59099579.75100708 1.03799438 1.29000854 1.34199524q.80700684.45600128 1.79699707.45600128c.69500733 0 1.30700684-.15200043 1.83700562-.45600128z"></path>
      <path fill="rgb(11,61,85)" fill-rule="evenodd" d="M86.4193 23.959h4.126l2.128-2.532h-4.127l-2.127 2.532z"></path>
      <path fill="rgb(11,61,85)" fill-rule="evenodd" d="M116.2894 22.4129c0-1.09-.883-1.973-1.973-1.973s-1.973.883-1.973 1.973.883 1.973 1.973 1.973 1.973-.883 1.973-1.973"></path>
      <path fill="rgb(11,61,85)" fill-rule="evenodd" d="M51.8339 24.1402c1.09 0 1.973-.883 1.973-1.973s-.883-1.973-1.973-1.973c-1.089 0-1.973.883-1.973 1.973s.884 1.973 1.973 1.973"></path>
    </g>
  </g>
</svg>
